<svg id="Calque_1" data-name="Calque 1" xmlns="http://www.w3.org/2000/svg" xmlns:xlink="http://www.w3.org/1999/xlink" viewBox="0 0 64 48"><defs><style>.cls-1{fill:none;}.cls-2{clip-path:url(#clip-path);}.cls-3{clip-path:url(#clip-path-2);}.cls-4{clip-path:url(#clip-path-3);}.cls-5{clip-path:url(#clip-path-4);}.cls-6{clip-path:url(#clip-path-5);}.cls-7{clip-path:url(#clip-path-11);}.cls-8{clip-path:url(#clip-path-12);}.cls-9{clip-path:url(#clip-path-13);}.cls-10{clip-path:url(#clip-path-14);}.cls-11{clip-path:url(#clip-path-15);}.cls-12{fill:#ff5f00;}.cls-13{fill:#eb001b;}.cls-14{fill:#f79e1b;}.cls-15{clip-path:url(#clip-path-21);}.cls-16{clip-path:url(#clip-path-22);}.cls-17{clip-path:url(#clip-path-23);}.cls-18{clip-path:url(#clip-path-24);}.cls-19{clip-path:url(#clip-path-25);}.cls-20{clip-path:url(#clip-path-26);}.cls-21{clip-path:url(#clip-path-27);}.cls-22{clip-path:url(#clip-path-28);}.cls-23{clip-path:url(#clip-path-29);}.cls-24{clip-path:url(#clip-path-30);}.cls-25{clip-path:url(#clip-path-31);}.cls-26{clip-path:url(#clip-path-32);}.cls-27{clip-path:url(#clip-path-33);}.cls-28{clip-path:url(#clip-path-34);}.cls-29{clip-path:url(#clip-path-35);}.cls-30{clip-path:url(#clip-path-36);}.cls-31{clip-path:url(#clip-path-37);}.cls-32{clip-path:url(#clip-path-38);}.cls-33{clip-path:url(#clip-path-39);}.cls-34{clip-path:url(#clip-path-40);}.cls-35{clip-path:url(#clip-path-41);}.cls-36{clip-path:url(#clip-path-42);}.cls-37{clip-path:url(#clip-path-43);}.cls-38{clip-path:url(#clip-path-44);}.cls-39{clip-path:url(#clip-path-45);}.cls-40{clip-path:url(#clip-path-46);}.cls-41{clip-path:url(#clip-path-47);}.cls-42{clip-path:url(#clip-path-48);}.cls-43{clip-path:url(#clip-path-49);}.cls-44{clip-path:url(#clip-path-50);}.cls-45{clip-path:url(#clip-path-51);}.cls-46{clip-path:url(#clip-path-52);}</style><clipPath id="clip-path"><polyline class="cls-1" points="-73.7 33.76 -70.56 14.29 -65.54 14.29 -68.68 33.76 -73.7 33.76"/></clipPath><clipPath id="clip-path-2"><path class="cls-1" d="M-50.48,14.77A12.31,12.31,0,0,0-55,14c-5,0-8.46,2.64-8.49,6.42,0,2.8,2.49,4.37,4.4,5.3s2.61,1.56,2.6,2.41c0,1.31-1.56,1.9-3,1.9a10,10,0,0,1-4.73-1l-.64-.31L-65.54,33a15.07,15.07,0,0,0,5.59,1c5.28,0,8.7-2.61,8.74-6.65,0-2.22-1.31-3.9-4.21-5.29-1.75-.91-2.83-1.5-2.82-2.42S-57.33,18-55.36,18a8.65,8.65,0,0,1,3.75.75l.45.22.68-4.22"/></clipPath><clipPath id="clip-path-3"><path class="cls-1" d="M-43.8,26.86c.42-1.12,2-5.45,2-5.45s.41-1.13.67-1.86l.33,1.68s1,4.65,1.17,5.63Zm6.2-12.56h-3.88a2.47,2.47,0,0,0-2.63,1.62l-7.46,17.85h5.27s.86-2.4,1.06-2.93h6.43c.15.68.61,2.92.61,2.92h4.66L-37.61,14.3Z"/></clipPath><clipPath id="clip-path-4"><path class="cls-1" d="M-77.91,14.3l-4.91,13.28-.53-2.7a15,15,0,0,0-7-8.17l4.49,17h5.31l7.91-19.44h-5.32"/></clipPath><clipPath id="clip-path-5"><path class="cls-1" d="M-87.38,14.29h-8.1l-.06.4c6.29,1.61,10.46,5.51,12.19,10.19l-1.76-8.95a2.1,2.1,0,0,0-2.27-1.64"/></clipPath><clipPath id="clip-path-11"><polyline class="cls-1" points="-144.28 33.76 -141.14 14.29 -136.12 14.29 -139.26 33.76 -144.28 33.76"/></clipPath><clipPath id="clip-path-12"><path class="cls-1" d="M-121.06,14.77a12.31,12.31,0,0,0-4.49-.82c-5,0-8.46,2.64-8.49,6.42,0,2.8,2.5,4.37,4.4,5.3s2.61,1.56,2.6,2.41c0,1.31-1.56,1.9-3,1.9a10.07,10.07,0,0,1-4.73-1l-.64-.31-.7,4.36a15,15,0,0,0,5.59,1c5.27,0,8.7-2.61,8.74-6.65,0-2.22-1.32-3.9-4.22-5.29-1.75-.91-2.83-1.5-2.82-2.42s.91-1.67,2.88-1.67a8.72,8.72,0,0,1,3.76.75l.45.22.68-4.22"/></clipPath><clipPath id="clip-path-13"><path class="cls-1" d="M-114.37,26.86l2-5.45c0,.05.41-1.13.67-1.86l.34,1.68,1.16,5.63Zm6.19-12.56h-3.88a2.47,2.47,0,0,0-2.63,1.62l-7.45,17.85h5.27l1.05-2.93h6.43c.15.68.61,2.92.61,2.92h4.66l-4.07-19.47Z"/></clipPath><clipPath id="clip-path-14"><path class="cls-1" d="M-148.49,14.3l-4.91,13.28-.53-2.7a15,15,0,0,0-6.95-8.17l4.49,17h5.31l7.91-19.44h-5.32"/></clipPath><clipPath id="clip-path-15"><path class="cls-1" d="M-158,14.29H-166l-.07.4c6.29,1.61,10.46,5.51,12.19,10.19l-1.76-8.95A2.1,2.1,0,0,0-158,14.29"/></clipPath><clipPath id="clip-path-21"><path class="cls-1" d="M467.36,123.44a10.27,10.27,0,0,0,6.44,9.31,24.59,24.59,0,0,1-3.32,6.54c-2,2.8-4.07,5.59-7.34,5.65s-4.24-1.83-7.92-1.83-4.82,1.77-7.85,1.89-5.56-3-7.57-5.83c-4.12-5.71-7.27-16.13-3-23.17a11.78,11.78,0,0,1,9.92-5.76c3.1-.06,6,2,7.92,2s5.45-2.47,9.19-2.11a11.41,11.41,0,0,1,8.77,4.57,10.39,10.39,0,0,0-5.19,8.75m-6-17.1A9.82,9.82,0,0,0,463.83,99a10.91,10.91,0,0,0-7.06,3.48,9.38,9.38,0,0,0-2.55,7.12,9,9,0,0,0,7.11-3.26"/></clipPath><clipPath id="clip-path-22"><path class="cls-1" d="M398.66,123.44a10.27,10.27,0,0,0,6.44,9.31,24.59,24.59,0,0,1-3.32,6.54c-2,2.8-4.07,5.59-7.34,5.65s-4.24-1.83-7.92-1.83-4.82,1.77-7.85,1.89-5.56-3-7.57-5.83C367,133.46,363.83,123,368.05,116a11.81,11.81,0,0,1,9.93-5.76c3.1-.06,6,2,7.92,2s5.45-2.47,9.19-2.11a11.41,11.41,0,0,1,8.77,4.57,10.39,10.39,0,0,0-5.19,8.75m-6-17.1A9.82,9.82,0,0,0,395.13,99a10.86,10.86,0,0,0-7.06,3.48,9.38,9.38,0,0,0-2.55,7.12,9,9,0,0,0,7.11-3.26"/></clipPath><clipPath id="clip-path-23"><path class="cls-1" d="M239.57,643.5a.28.28,0,0,0-.3-.3h-1.05a.36.36,0,0,0-.38.32,0,0,0,0,0,0,.05v1.68c0,.24.14.36.42.37h1a.36.36,0,0,0,.25-.1.24.24,0,0,0,.11-.2V643.5Zm-3.09-.24a1.38,1.38,0,0,1,.32-1,1.34,1.34,0,0,1,.4-.23,1.24,1.24,0,0,1,.5-.1h1.93a1.13,1.13,0,0,1,1.29,1.24v2.54a1,1,0,0,1-.38.76,1.27,1.27,0,0,1-.88.34h-1.83v1.83h-1.35v-5.42Z"/></clipPath><clipPath id="clip-path-24"><path class="cls-1" d="M243.36,645.37a.2.2,0,0,0,.11.17.41.41,0,0,0,.24.08h1c.23,0,.36-.09.36-.25V645c0-.19-.12-.29-.37-.29h-1a.46.46,0,0,0-.28.06.36.36,0,0,0-.07.26v.31Zm1.75-1.9c0-.18-.11-.27-.36-.26H242V642h3.06c.89,0,1.34.4,1.36,1.16v2.58a1.1,1.1,0,0,1-.34.81,1.21,1.21,0,0,1-.88.34h-1.85c-.9,0-1.36-.38-1.37-1.1v-1a1.08,1.08,0,0,1,1-1.16h2.08v-.12Z"/></clipPath><clipPath id="clip-path-25"><path class="cls-1" d="M250.24,647.44a.45.45,0,0,0,.28-.1.27.27,0,0,0,.11-.19v-.3H248.9a1.6,1.6,0,0,1-.54-.07,1.34,1.34,0,0,1-.43-.26,1.26,1.26,0,0,1-.38-.91V642h1.35v3.26q0,.39.36.39h1a.45.45,0,0,0,.29-.1.25.25,0,0,0,.12-.2V642H252v5.39a1.4,1.4,0,0,1-.34,1,1.24,1.24,0,0,1-.92.37h-3.15v-1.24h2.7"/></clipPath><clipPath id="clip-path-26"><path class="cls-1" d="M253,645.61h2.4c.22,0,.34-.08.34-.23v-.11a.2.2,0,0,0,0-.11.23.23,0,0,0-.2-.14h-1.19a1.46,1.46,0,0,1-.91-.32,1,1,0,0,1-.4-.72v-.92c0-.72.46-1.08,1.32-1.1h2.79v1.24h-2.36c-.28,0-.42.08-.42.23v.12c0,.15.14.23.43.23H256a1.2,1.2,0,0,1,.81.33,1,1,0,0,1,.35.76v.9a1.2,1.2,0,0,1-.39.76,1.09,1.09,0,0,1-.38.25,1.58,1.58,0,0,1-.53.07H253v-1.24"/></clipPath><clipPath id="clip-path-27"><path class="cls-1" d="M259.46,645.37a.18.18,0,0,0,.11.17.41.41,0,0,0,.24.08h1c.24,0,.36-.09.36-.25V645c0-.19-.12-.29-.37-.29h-1a.48.48,0,0,0-.28.06.41.41,0,0,0-.07.26v.31Zm1.75-1.9c0-.18-.11-.27-.36-.26h-2.72V642h3.06c.89,0,1.35.4,1.36,1.16v2.58a1.14,1.14,0,0,1-.34.81,1.2,1.2,0,0,1-.88.34h-1.85c-.9,0-1.36-.38-1.37-1.1v-1a1.08,1.08,0,0,1,1-1.16h2.08v-.12Z"/></clipPath><clipPath id="clip-path-28"><path class="cls-1" d="M263.65,641.27a1,1,0,0,1,.41-.8,1.67,1.67,0,0,1,1-.32H266v1.19h-.53c-.28,0-.43.13-.43.37V642H266v1.24H265v3.65h-1.35v-5.59"/></clipPath><clipPath id="clip-path-29"><path class="cls-1" d="M269.79,643.45v0a.18.18,0,0,0-.08-.16.46.46,0,0,0-.23-.06h-.94a.51.51,0,0,0-.3.09.29.29,0,0,0-.14.23v.5l1.7-.57Zm-1.67,1.74v.08a.36.36,0,0,0,.09.24.23.23,0,0,0,.18.11h2.77v1.23h-3a1.94,1.94,0,0,1-.63-.07,1,1,0,0,1-.43-.23,1.06,1.06,0,0,1-.3-.4,1.58,1.58,0,0,1-.08-.57v-2.47a1.09,1.09,0,0,1,1.05-1.15,1.15,1.15,0,0,1,.26,0h1.82a1.14,1.14,0,0,1,1.28.93,1,1,0,0,1,0,.25v1l-3.05,1.06Z"/></clipPath><clipPath id="clip-path-30"><path class="cls-1" d="M274,646.85a2.59,2.59,0,0,1-.56-.05,1.29,1.29,0,0,1-.54-.22,1.18,1.18,0,0,1-.38-.48,1.36,1.36,0,0,1-.11-.6v-2.3a1.4,1.4,0,0,1,.06-.5,1.1,1.1,0,0,1,.29-.42,1.28,1.28,0,0,1,.51-.29,2.2,2.2,0,0,1,.57,0h2.07v.29h-2a1.53,1.53,0,0,0-.84.19.84.84,0,0,0-.32.74v2.3a1.36,1.36,0,0,0,.09.48.89.89,0,0,0,.28.39,1.16,1.16,0,0,0,.44.19,2.42,2.42,0,0,0,.47,0H276v.29H274"/></clipPath><clipPath id="clip-path-31"><path class="cls-1" d="M281.26,643.86h-2.71a1.08,1.08,0,0,0-.76.27.9.9,0,0,0-.29.72v.73a1.6,1.6,0,0,0,.05.39.59.59,0,0,0,.25.33,1.28,1.28,0,0,0,.78.26h1.65a.92.92,0,0,0,1-.74.89.89,0,0,0,0-.23v-1.73Zm.32,1.66a2.63,2.63,0,0,1,0,.49,1,1,0,0,1-.27.45,1.46,1.46,0,0,1-1,.39h-1.61a1.53,1.53,0,0,1-1-.33,1.12,1.12,0,0,1-.41-.92v-.74a1.2,1.2,0,0,1,1.12-1.29,1.41,1.41,0,0,1,.29,0h2.69v-.33a1.08,1.08,0,0,0-.26-.7.87.87,0,0,0-.39-.26,2.22,2.22,0,0,0-.51-.06h-2.93v-.29H280a5.34,5.34,0,0,1,.69.05,1,1,0,0,1,.29.11.87.87,0,0,1,.27.23,1.4,1.4,0,0,1,.36,1v2.22Z"/></clipPath><clipPath id="clip-path-32"><path class="cls-1" d="M284.62,642.22c-.75,0-1.12.38-1.11,1.1v3.53h-.32v-3.53a1.2,1.2,0,0,1,1.07-1.38,1.41,1.41,0,0,1,.41,0H285v.29h-.41"/></clipPath><clipPath id="clip-path-33"><path class="cls-1" d="M290.08,642.23h-2.56a1.7,1.7,0,0,0-.5,0,.88.88,0,0,0-.44.25.86.86,0,0,0-.26.37,1.17,1.17,0,0,0-.06.45v2.25a.8.8,0,0,0,.37.77,1.72,1.72,0,0,0,.4.14,1.7,1.7,0,0,0,.5,0h1.12a1.8,1.8,0,0,0,1-.25.92.92,0,0,0,.41-.84v-3.24Zm.32,3.26c0,.93-.58,1.38-1.66,1.36h-1.2a3.16,3.16,0,0,1-.68-.05,1.35,1.35,0,0,1-.59-.34A1.11,1.11,0,0,1,286,646a1.66,1.66,0,0,1-.06-.54v-2.1a1.3,1.3,0,0,1,1.22-1.42,1.61,1.61,0,0,1,.38,0h2.54v-1.6h.32v5.15Z"/></clipPath><clipPath id="clip-path-34"><path class="cls-1" d="M229,641.78a1.92,1.92,0,0,1,.32-.09,2.11,2.11,0,0,1,4,0,1.53,1.53,0,0,1,.75.32,2.36,2.36,0,0,0,0-.46,2.79,2.79,0,0,0-5.49.12c0,.12,0,.23,0,.35a1.7,1.7,0,0,1,.44-.24"/></clipPath><clipPath id="clip-path-35"><path class="cls-1" d="M229.62,642a1.16,1.16,0,0,0-.49.1,1.27,1.27,0,0,0-.41.23,1.43,1.43,0,0,0-.32,1v2.3a1.43,1.43,0,0,0,.32,1,1.27,1.27,0,0,0,.41.23,1.16,1.16,0,0,0,.49.1h3.3a1.13,1.13,0,0,0,1.29-1.24v-2.4a1.13,1.13,0,0,0-1.29-1.24Z"/></clipPath><clipPath id="clip-path-36"><path class="cls-1" d="M385.49,963a23.16,23.16,0,0,1,10.15,2.34,15.36,15.36,0,0,1,1.45.75L395,968l-3.21-3.28-5.42,4.78L383.12,966,373,975l6.46,7.06L377,984.3l6.36,7.08-2.52,2.2,9.09,10,5.4-4.93L400,1004a25.56,25.56,0,0,1-3,2,23.05,23.05,0,1,1-11.43-43"/></clipPath><clipPath id="clip-path-37"><polyline class="cls-1" points="381.27 984.55 386.78 979.62 391.74 985.09 386.24 990.03 381.28 984.56"/></clipPath><clipPath id="clip-path-38"><polyline class="cls-1" points="385.19 994 390.7 989.07 395.66 994.54 390.15 999.47 385.19 993.99"/></clipPath><clipPath id="clip-path-39"><polyline class="cls-1" points="377.33 975.21 382.84 970.28 387.8 975.75 382.29 980.68 377.33 975.21"/></clipPath><clipPath id="clip-path-40"><polyline class="cls-1" points="387.44 972.55 391.57 968.86 395.28 972.96 391.14 976.67 387.44 972.56"/></clipPath><clipPath id="clip-path-41"><polyline class="cls-1" points="394.78 989.47 398.92 985.76 402.62 989.87 398.49 993.57 394.77 989.47"/></clipPath><clipPath id="clip-path-42"><polyline class="cls-1" points="398.42 997.75 402.55 994.05 406.27 998.15 402.14 1001.85 398.43 997.75"/></clipPath><clipPath id="clip-path-43"><polyline class="cls-1" points="400.08 978.77 402.84 976.3 405.32 979.04 402.56 981.5 400.08 978.77"/></clipPath><clipPath id="clip-path-44"><polyline class="cls-1" points="396.56 970.64 399.31 968.18 401.8 970.92 399.04 973.38 396.56 970.64"/></clipPath><clipPath id="clip-path-45"><polyline class="cls-1" points="403.6 986.89 406.36 984.43 408.84 987.17 406.08 989.63 403.6 986.89"/></clipPath><clipPath id="clip-path-46"><polyline class="cls-1" points="391.25 980.81 395.38 977.1 399.09 981.2 394.95 984.91 391.23 980.81"/></clipPath><clipPath id="clip-path-47"><path class="cls-1" d="M590.59,641.81a1.3,1.3,0,0,1-1.3-1.3v-5.74h-.48c-3,0-4.08.49-4.08,3.19v16.76a4.69,4.69,0,0,1-.64,2.61c-.81,1.25-2.41,1.81-5,1.82s-4.17-.57-5-1.82a4.78,4.78,0,0,1-.64-2.61V638c0-2.7-1.1-3.19-4.08-3.19h-.93c-3,0-4.08.49-4.08,3.19v16.76a12.58,12.58,0,0,0,1.78,6.82c2.27,3.56,6.67,5.46,12.91,5.46h0c6.24,0,10.64-1.9,12.91-5.46a12.58,12.58,0,0,0,1.78-6.82v-12.9h-3.24"/></clipPath><clipPath id="clip-path-48"><path class="cls-1" d="M604.33,632.56h-4.89a1,1,0,0,1-1-1v-5a1,1,0,0,1,1-1h4.89a1,1,0,0,1,1,1v5a1,1,0,0,1-1,1"/></clipPath><clipPath id="clip-path-49"><path class="cls-1" d="M597.82,625.67H594.5a.65.65,0,0,1-.65-.65v-3.36a.65.65,0,0,1,.65-.66h3.32a.65.65,0,0,1,.65.66V625a.65.65,0,0,1-.65.65"/></clipPath><clipPath id="clip-path-50"><path class="cls-1" d="M597.17,631.78h-6.58a1.3,1.3,0,0,0-1.3,1.3V634h.46c3,0,4.08.49,4.08,3.2v3.85h3.34a1.3,1.3,0,0,0,1.3-1.3v-6.67a1.3,1.3,0,0,0-1.3-1.3"/></clipPath><clipPath id="clip-path-51"><path class="cls-1" d="M176.65,636.09a10.59,10.59,0,0,1,1.94-.58c1.26-5.19,6.35-8.88,12.23-8.86s11,3.68,12.23,8.87a9.5,9.5,0,0,1,4.58,2,14.45,14.45,0,0,0-.12-2.79c-.84-7.78-8.09-13.69-16.74-13.65-8.94,0-16.33,6.28-16.77,14.35a19.46,19.46,0,0,0,0,2.16,11.16,11.16,0,0,1,2.64-1.47"/></clipPath><clipPath id="clip-path-52"><path class="cls-1" d="M180.52,637.23a8.08,8.08,0,0,0-3,.61,8.26,8.26,0,0,0-2.47,1.41,8.45,8.45,0,0,0-1.93,5.87v14a8.41,8.41,0,0,0,1.93,5.86,9.16,9.16,0,0,0,5.47,2h20.14q7.8-.07,7.92-7.61V644.83q-.12-7.55-7.92-7.6Z"/></clipPath></defs><title>mastercard</title><path class="cls-12" d="M40.38,39.07H23.61V8.93H40.38Z"/><path class="cls-13" d="M24.69,24A19.12,19.12,0,0,1,32,8.93a19.17,19.17,0,1,0,0,30.13,19.15,19.15,0,0,1-7.32-15"/><path class="cls-14" d="M63,24A19.16,19.16,0,0,1,43.84,43.17h0A19.13,19.13,0,0,1,32,39.07,19.17,19.17,0,0,0,32,8.93,19.16,19.16,0,0,1,63,24h0"/></svg>