<svg id="Calque_1" data-name="Calque 1" xmlns="http://www.w3.org/2000/svg" xmlns:xlink="http://www.w3.org/1999/xlink" viewBox="0 0 64 48"><defs><style>.cls-1{fill:none;}.cls-2{clip-path:url(#clip-path);}.cls-3{clip-path:url(#clip-path-2);}.cls-4{clip-path:url(#clip-path-3);}.cls-5{clip-path:url(#clip-path-4);}.cls-6{clip-path:url(#clip-path-5);}.cls-7{clip-path:url(#clip-path-6);}.cls-8{clip-path:url(#clip-path-7);}.cls-9{clip-path:url(#clip-path-8);}.cls-10{clip-path:url(#clip-path-9);}.cls-11{clip-path:url(#clip-path-10);}.cls-12{clip-path:url(#clip-path-11);}.cls-13{clip-path:url(#clip-path-12);}.cls-14{clip-path:url(#clip-path-13);}.cls-15{clip-path:url(#clip-path-14);}.cls-16{clip-path:url(#clip-path-15);}.cls-17{clip-path:url(#clip-path-16);}.cls-18{clip-path:url(#clip-path-17);}.cls-19{clip-path:url(#clip-path-18);}.cls-20{clip-path:url(#clip-path-19);}.cls-21{clip-path:url(#clip-path-20);}.cls-22{clip-path:url(#clip-path-21);}.cls-23{clip-path:url(#clip-path-22);}.cls-24{fill:#1a1f71;}</style><clipPath id="clip-path"><path class="cls-1" d="M495.21,187.45a10.23,10.23,0,0,0,6.44,9.31,25,25,0,0,1-3.32,6.54c-2,2.8-4.08,5.6-7.35,5.65s-4.24-1.82-7.91-1.82-4.82,1.77-7.86,1.88-5.55-3-7.57-5.82c-4.12-5.71-7.27-16.13-3-23.18a11.83,11.83,0,0,1,9.93-5.76c3.09-.06,6,2,7.91,2s5.45-2.47,9.19-2.11a11.34,11.34,0,0,1,8.77,4.56,10.38,10.38,0,0,0-5.18,8.75m-6-17.09a9.9,9.9,0,0,0,2.5-7.34,10.91,10.91,0,0,0-7.07,3.48,9.41,9.41,0,0,0-2.55,7.12,9,9,0,0,0,7.12-3.26"/></clipPath><clipPath id="clip-path-2"><path class="cls-1" d="M482,1027a23.09,23.09,0,0,1,10.16,2.33q.72.35,1.44.75l-2.13,1.9-3.2-3.29-5.42,4.79-3.22-3.48-10.07,9,6.46,7.07-2.54,2.21,6.36,7.08-2.52,2.21,9.09,10.05,5.4-4.93,4.66,5.28A23.08,23.08,0,1,1,482,1027"/></clipPath><clipPath id="clip-path-3"><polyline class="cls-1" points="477.81 1048.56 483.32 1043.64 488.28 1049.11 482.78 1054.04 477.82 1048.57"/></clipPath><clipPath id="clip-path-4"><polyline class="cls-1" points="481.73 1058.01 487.24 1053.09 492.2 1058.56 486.69 1063.48 481.73 1058.01"/></clipPath><clipPath id="clip-path-5"><polyline class="cls-1" points="473.87 1039.22 479.38 1034.3 484.34 1039.77 478.83 1044.69 473.87 1039.22"/></clipPath><clipPath id="clip-path-6"><polyline class="cls-1" points="483.98 1036.57 488.11 1032.88 491.82 1036.97 487.69 1040.68 483.98 1036.58"/></clipPath><clipPath id="clip-path-7"><polyline class="cls-1" points="491.32 1053.49 495.46 1049.78 499.17 1053.88 495.03 1057.59 491.31 1053.49"/></clipPath><clipPath id="clip-path-8"><polyline class="cls-1" points="494.96 1061.77 499.09 1058.06 502.81 1062.16 498.68 1065.87 494.97 1061.77"/></clipPath><clipPath id="clip-path-9"><polyline class="cls-1" points="496.63 1042.78 499.38 1040.32 501.86 1043.06 499.11 1045.52 496.63 1042.78"/></clipPath><clipPath id="clip-path-10"><polyline class="cls-1" points="493.1 1034.66 495.86 1032.2 498.34 1034.93 495.58 1037.39 493.1 1034.66"/></clipPath><clipPath id="clip-path-11"><polyline class="cls-1" points="500.15 1050.91 502.9 1048.45 505.38 1051.18 502.63 1053.64 500.15 1050.91"/></clipPath><clipPath id="clip-path-12"><polyline class="cls-1" points="487.79 1044.82 491.92 1041.12 495.63 1045.22 491.5 1048.92 487.78 1044.82"/></clipPath><clipPath id="clip-path-13"><path class="cls-1" d="M687.13,705.82a1.3,1.3,0,0,1-1.3-1.3v-5.74h-.48c-3,0-4.07.49-4.07,3.2v16.75a4.76,4.76,0,0,1-.64,2.61c-.81,1.25-2.42,1.82-5,1.82s-4.16-.57-5-1.81a4.79,4.79,0,0,1-.64-2.62V702c0-2.71-1.1-3.2-4.07-3.2H665c-3,0-4.08.49-4.08,3.2v16.76a12.47,12.47,0,0,0,1.79,6.81c2.26,3.57,6.66,5.47,12.9,5.47h.05c6.25,0,10.64-1.9,12.91-5.47a12.37,12.37,0,0,0,1.78-6.81V705.83h-3.23"/></clipPath><clipPath id="clip-path-14"><path class="cls-1" d="M700.87,696.57H696a1,1,0,0,1-1-1v-5a1,1,0,0,1,1-1h4.89a1,1,0,0,1,1,1v5a1,1,0,0,1-1,1"/></clipPath><clipPath id="clip-path-15"><path class="cls-1" d="M694.36,689.69h-3.31a.66.66,0,0,1-.66-.66v-3.36a.65.65,0,0,1,.66-.65h3.31a.66.66,0,0,1,.66.65V689a.67.67,0,0,1-.66.66"/></clipPath><clipPath id="clip-path-16"><path class="cls-1" d="M693.72,695.8h-6.58a1.3,1.3,0,0,0-1.3,1.29V698h.45c3,0,4.08.49,4.08,3.2v3.85h3.35a1.3,1.3,0,0,0,1.3-1.3V697.1a1.3,1.3,0,0,0-1.3-1.3"/></clipPath><clipPath id="clip-path-17"><path class="cls-1" d="M273.19,700.1a11.05,11.05,0,0,1,1.94-.57c1.26-5.19,6.36-8.88,12.23-8.87s11,3.68,12.24,8.87a9.52,9.52,0,0,1,4.57,2,14.49,14.49,0,0,0-.12-2.79c-.84-7.77-8.09-13.69-16.73-13.65-8.94,0-16.33,6.29-16.78,14.36-.05.72-.06,1.44,0,2.16a11.07,11.07,0,0,1,2.65-1.48"/></clipPath><clipPath id="clip-path-18"><path class="cls-1" d="M277.07,701.24a8.13,8.13,0,0,0-3,.61,8.65,8.65,0,0,0-2.47,1.42,8.49,8.49,0,0,0-1.93,5.87v14a8.49,8.49,0,0,0,1.93,5.87,9.07,9.07,0,0,0,5.48,2H297.2q7.8-.06,7.93-7.61V708.84q-.12-7.55-7.93-7.6Z"/></clipPath><clipPath id="clip-path-19"><path class="cls-1" d="M535.7,183.55a5,5,0,0,0,3.14,4.53,12,12,0,0,1-1.62,3.19c-1,1.36-2,2.72-3.57,2.75s-2.07-.89-3.86-.89-2.35.86-3.83.92-2.7-1.48-3.68-2.84c-2-2.78-3.54-7.85-1.48-11.28a5.74,5.74,0,0,1,4.83-2.81c1.51,0,2.93,1,3.85,1s2.66-1.21,4.48-1a5.55,5.55,0,0,1,4.27,2.22,5.05,5.05,0,0,0-2.53,4.26m-2.94-8.32a4.81,4.81,0,0,0,1.22-3.58,5.33,5.33,0,0,0-3.44,1.7,4.58,4.58,0,0,0-1.24,3.47,4.4,4.4,0,0,0,3.46-1.59"/></clipPath><clipPath id="clip-path-20"><path class="cls-1" d="M544.57,173.6c.61-.1,1.27-.19,2-.26a19.45,19.45,0,0,1,2.41-.12,10.4,10.4,0,0,1,3.23.43,5.85,5.85,0,0,1,2.24,1.26,5.24,5.24,0,0,1,1.17,1.73,5.81,5.81,0,0,1,.42,2.29,6.21,6.21,0,0,1-.58,2.75,5.73,5.73,0,0,1-1.57,2,6.77,6.77,0,0,1-2.38,1.2,10.9,10.9,0,0,1-3,.4,12.74,12.74,0,0,1-2.47-.21v8.7h-1.47Zm1.48,10.16a7.66,7.66,0,0,0,1.18.21q.66.06,1.41.06a6.66,6.66,0,0,0,4.36-1.27,4.55,4.55,0,0,0,1.55-3.72,5,5,0,0,0-.41-2.06,3.59,3.59,0,0,0-1.16-1.43,5.32,5.32,0,0,0-1.78-.85,8.34,8.34,0,0,0-2.28-.29,16.5,16.5,0,0,0-1.72.08c-.48,0-.86.1-1.15.16v9.1Z"/></clipPath><clipPath id="clip-path-21"><path class="cls-1" d="M567.73,190.28c0,.59,0,1.17,0,1.76a12,12,0,0,0,.18,1.69h-1.37l-.22-2.06h-.06a5.31,5.31,0,0,1-.72.85,5.93,5.93,0,0,1-1,.77,5.62,5.62,0,0,1-1.31.56,5.48,5.48,0,0,1-1.61.21,4.85,4.85,0,0,1-1.92-.35,3.89,3.89,0,0,1-1.36-.9,3.68,3.68,0,0,1-.8-1.29,4.47,4.47,0,0,1,2-5.41,12.67,12.67,0,0,1,6.74-1.32v-.4a9.81,9.81,0,0,0-.12-1.32,3.88,3.88,0,0,0-.48-1.4,3,3,0,0,0-1.13-1.12,3.86,3.86,0,0,0-2-.45,6.56,6.56,0,0,0-1.92.28,6.63,6.63,0,0,0-1.73.8l-.47-1.06a6.94,6.94,0,0,1,2.07-1,8.28,8.28,0,0,1,2.21-.29,5.45,5.45,0,0,1,2.55.51,4.24,4.24,0,0,1,1.55,1.33,4.75,4.75,0,0,1,.76,1.83,9.73,9.73,0,0,1,.21,2v5.72ZM566.26,186a20.73,20.73,0,0,0-2.49.09,9.3,9.3,0,0,0-2.39.53,4.6,4.6,0,0,0-1.81,1.2,3,3,0,0,0-.72,2.09,2.73,2.73,0,0,0,.9,2.26,3.16,3.16,0,0,0,2,.72,4.93,4.93,0,0,0,1.62-.24,4.51,4.51,0,0,0,1.25-.65,4.32,4.32,0,0,0,.89-.92,4.45,4.45,0,0,0,.55-1.06,4.4,4.4,0,0,0,.16-.88V186Z"/></clipPath><clipPath id="clip-path-22"><path class="cls-1" d="M570.6,179.22l3.81,9.43q.32.79.6,1.62c.18.55.35,1.06.5,1.53h.06c.15-.45.31-1,.5-1.5s.39-1.12.62-1.71l3.57-9.36h1.56l-4.34,10.63c-.44,1.13-.85,2.15-1.24,3.07a26.15,26.15,0,0,1-1.17,2.47,16.26,16.26,0,0,1-1.21,1.95,8.31,8.31,0,0,1-1.35,1.49,8,8,0,0,1-1.61,1.1c-.49.23-.82.38-1,.44l-.5-1.18a11.31,11.31,0,0,0,1.25-.64,7,7,0,0,0,1.35-1,13,13,0,0,0,1.23-1.44,9.92,9.92,0,0,0,1.2-2.16,2.08,2.08,0,0,0,.19-.63,1.76,1.76,0,0,0-.19-.64L569,179.22Z"/></clipPath></defs><path class="cls-24" d="M24.65,14.48l-8,19.08H11.43L7.5,18.34a2.11,2.11,0,0,0-1.17-1.68A20.22,20.22,0,0,0,1.45,15l.12-.56H10a2.31,2.31,0,0,1,2.28,1.95l2.08,11,5.13-13ZM45.1,27.33c0-5-7-5.31-6.92-7.56,0-.69.67-1.41,2.09-1.6a9.41,9.41,0,0,1,4.87.85L46,15a13.32,13.32,0,0,0-4.62-.85c-4.88,0-8.31,2.6-8.34,6.31,0,2.75,2.45,4.28,4.32,5.2s2.57,1.53,2.56,2.37c0,1.28-1.53,1.84-3,1.86a10.4,10.4,0,0,1-5.08-1.2L31,32.85a15.05,15.05,0,0,0,5.49,1c5.19,0,8.58-2.57,8.6-6.54M58,33.56h4.57l-4-19.08H54.35a2.26,2.26,0,0,0-2.11,1.4l-7.4,17.68H50l1-2.85h6.33ZM52.47,26.8l2.6-7.16,1.5,7.16ZM31.7,14.48,27.62,33.56H22.68l4.09-19.08Z"/></svg>